<?xml version="1.0" standalone="no"?>
<!DOCTYPE svg PUBLIC "-//W3C//DTD SVG 20010904//EN"
 "http://www.w3.org/TR/2001/REC-SVG-20010904/DTD/svg10.dtd">
<svg version="1.0" xmlns="http://www.w3.org/2000/svg"
 width="512.000000pt" height="512.000000pt" viewBox="0 0 512.000000 512.000000"
 preserveAspectRatio="xMidYMid meet">
<metadata>
Created by potrace 1.14, written by Peter Selinger 2001-2017
</metadata>
<g transform="translate(0.000000,512.000000) scale(0.100000,-0.100000)"
fill="#000000" stroke="none">
<path d="M0 2560 l0 -2560 2560 0 2560 0 0 2560 0 2560 -2560 0 -2560 0 0
-2560z m2461 2089 c69 -43 181 -119 248 -170 139 -103 371 -323 468 -444 205
-254 343 -536 404 -825 18 -85 23 -139 23 -285 1 -99 -3 -207 -8 -240 l-9 -60
-11 56 c-14 67 -47 120 -96 153 -70 48 -776 427 -815 437 -80 22 -109 10 -520
-214 -214 -116 -405 -225 -423 -241 -18 -16 -43 -48 -55 -70 -22 -40 -22 -50
-25 -483 -2 -291 1 -457 8 -483 25 -93 44 -107 475 -343 345 -190 407 -220
453 -225 28 -2 52 -5 52 -6 0 -1 -15 -38 -34 -83 -113 -268 -135 -513 -65
-747 11 -37 18 -70 16 -73 -3 -2 -67 19 -143 48 -950 357 -1448 735 -1590
1205 -24 78 -27 106 -27 229 -1 115 3 156 22 230 74 288 260 596 568 942 59
67 167 188 238 269 475 536 676 935 635 1263 -10 80 -54 220 -91 293 -11 21
-19 40 -19 43 0 10 181 -90 321 -176z m1624 -1814 c223 -335 325 -620 326
-913 0 -140 -11 -211 -52 -337 -66 -202 -181 -377 -379 -575 -147 -147 -291
-263 -496 -401 -188 -125 -496 -309 -520 -309 -4 0 -4 13 -1 29 3 15 0 103 -8
195 -15 190 -9 266 30 381 62 185 209 402 451 665 195 213 313 410 398 672 62
188 102 419 113 641 l6 131 29 -35 c16 -19 63 -83 103 -144z m-1229 -212 l234
-128 -2 -254 -3 -255 -237 -129 -237 -129 -238 130 -238 130 -2 254 -3 253
233 126 c127 70 238 127 245 128 7 1 119 -56 248 -126z"/>
</g>
</svg>
