<svg
      xmlns="http://www.w3.org/2000/svg"
      width="24"
      height="24"
      fill="none"
      version="1.1"
      viewBox="0 0 24 24"
    >
      <defs>
        <clipPath>
          <path fill="#fff" d="M0 0h24v24H0z"></path>
        </clipPath>
      </defs>
      <g fill="none" stroke="#FE005B" strokeOpacity="1" display="inline">
        <path d="M6.227 21.798l.004-2.624-4.71-6.159c-.292-1.857.04-6.255.229-7.143.638-1.217 1.77-1.1 2.543-.049.6 1.224.77 2.532 1.309 3.727-.962.348-1.473 1.464-1.041 2.133l2.371 2.756"></path>
        <path d="M5.602 9.55c1.947-.857 3.756 3.706 4.587 5.498.251 2.133.156 5.151.183 6.8l-4.145-.05"></path>
        <path
          d="M17.913 21.988l-.005-2.624 4.71-6.16c.292-1.856-.04-6.254-.229-7.142-.638-1.218-1.77-1.1-2.543-.049-.6 1.224-.77 2.531-1.309 3.727.962.348 1.473 1.463 1.041 2.133l-2.371 2.756"
          display="inline"
        ></path>
        <path
          d="M18.537 9.74c-1.947-.857-3.756 3.706-4.587 5.498-.251 2.133-.156 5.151-.183 6.8l4.146-.05"
          display="inline"
        ></path>
        <path d="M-12.583 13.847c-1.331-.072-2.64-.186-3.87-.46l-2.415-2.913c.234-3.44 1.796-6.092 4.79-7.896h3.45c2.563 1.787 4.586 4.069 4.715 8.087l-2.722 2.913c-1.447.156-2.7.213-3.948.269z"></path>
        <path d="M-14.077 2.578c-1.104-1.232-.06-1.176.23-1.571-.366-1.02-1.48-2.29.153-2.645 1.393-1.485 1.972-.526 2.683.038 1.496-.042 1.051 1.129.115 2.607.79.436 1.106.931.268 1.571z"></path>
        <path d="M-13.847 1.007h2.95"></path>
        <path d="M-13.71 10.007c.433.682.721.856 1.319 1.044.728-.232 1.248-.403 1.15-1.382-.084-.499-.317-.936-1.188-1.112-1.06-.312-1.03-.73-.997-1.15.13-.558.588-.977 1.254-1.036.566.03.75.022 1.269.7"></path>
        <path d="M-12.43 6.296l.01-.84"></path>
        <path d="M-12.391 11.051l.02.624"></path>
      </g>
    </svg>