    <svg
      xmlns="http://www.w3.org/2000/svg"
      width="32"
      height="40"
      fill="none"
      viewBox="0 0 32 40"
    >
      <path
        fill="#fff"
        d="M22.5 9.979H9.166c-.5 0-.833.333-.833.833 0 .5.333.834.833.834H22.5c.5 0 .833-.334.833-.834 0-.5-.333-.833-.833-.833zm-14-2.166c0 .333.333.5.667.5H22.5c.333 0 .667-.167.667-.5L26.5 1.146c.167-.333.167-.667-.167-1-.166-.167-.5-.167-.833 0l-6.167 3L16.5.313a.806.806 0 00-1.167 0l-3 2.833-6.166-3a1.063 1.063 0 00-1 0c-.334.167-.167.667 0 1L8.5 7.813zm14.667 5.833c-.167-.167-.5-.334-.667-.334H9.167c-.167 0-.5.167-.667.334-.333.333-8.5 9-8.5 13.833 0 6.833 7.167 12.5 15.833 12.5 8.667 0 15.834-5.667 15.834-12.5 0-4.833-8.167-13.5-8.5-13.833zm-6.5 19.666v.834c0 .5-.334.833-.834.833-.5 0-.833-.333-.833-.833v-.834c-1.833-.333-3.167-1.5-3.333-3 0-.5.333-.833.833-.833.5 0 .833.333.833.833 0 .667.834 1.334 1.667 1.5V28.48c-2.167-.5-3.333-1.667-3.333-3.167 0-1.666 1.5-3 3.333-3.333v-.833c0-.5.333-.834.833-.834.5 0 .834.334.834.834v.5c1.833.333 3.166 1.5 3.333 3 0 .5-.333.833-.833.833-.5 0-.834-.333-.834-.833 0-.667-.833-1.334-1.666-1.5v3.333c2.166.5 3.333 1.667 3.333 3.167 0 2-1.5 3.333-3.333 3.666z"
      ></path>
      <path
        fill="#fff"
        d="M16.667 28.479v3c1-.167 1.667-.834 1.667-1.5 0-.667-.5-1.167-1.667-1.5zm-3.334-3.5c0 .666.5 1.166 1.667 1.5v-3c-1 .166-1.667.833-1.667 1.5z"
      ></path>
    </svg>