   <svg
      xmlns="http://www.w3.org/2000/svg"
      width="24"
      height="24"
      fill="none"
      version="1.1"
      viewBox="0 0 24 24"
    >
      <path
        stroke="#FE005B"
        strokeOpacity="1"
        d="M18.111 8.143V5.57a2.64 2.64 0 00-.716-1.818A2.385 2.385 0 0015.667 3H3.444c-.648 0-1.27.27-1.728.753A2.64 2.64 0 001 5.571v7.715c0 .682.258 1.336.716 1.818.458.482 1.08.753 1.728.753H5.89M8.333 21h12.223c.648 0 1.27-.27 1.728-.753A2.64 2.64 0 0023 18.429v-7.715a2.64 2.64 0 00-.716-1.818 2.385 2.385 0 00-1.728-.753H8.333c-.648 0-1.27.27-1.728.753a2.64 2.64 0 00-.716 1.818v7.715c0 .682.257 1.336.716 1.818.458.482 1.08.753 1.728.753zm8.556-6.429a2.64 2.64 0 01-.716 1.819 2.385 2.385 0 01-1.729.753c-.648 0-1.27-.271-1.728-.753A2.64 2.64 0 0112 14.57c0-.682.258-1.336.716-1.818A2.384 2.384 0 0114.444 12c.649 0 1.27.27 1.729.753a2.64 2.64 0 01.716 1.818z"
      ></path>
    </svg>