   <svg
      xmlns="http://www.w3.org/2000/svg"
      width="24"
      height="24"
      fill="none"
      viewBox="0 0 24 24"
    >
      <path
        stroke="#FE005B"
        d="M4.461 11H2.1C1.492 11 1 10.503 1 9.889V2.11C1 1.497 1.492 1 2.1 1h19.8c.608 0 1.1.497 1.1 1.111V9.89c0 .614-.492 1.111-1.1 1.111h-2.08"
      ></path>
      <path
        stroke="#FE005B"
        d="M19.429 6H4.57a.56.56 0 00-.57.548v15.904a.56.56 0 00.571.548H19.43a.56.56 0 00.571-.548V6.548A.56.56 0 0019.429 6z"
      ></path>
      <path
        fill="#FE005B"
        d="M15 16.38c0 .435-.105.846-.315 1.231a2.5 2.5 0 01-.91.943c-.398.243-.868.386-1.413.428V20h-.747v-1.03c-.778-.076-1.405-.328-1.88-.755-.474-.436-.72-1.023-.735-1.76h1.751c.047.603.335.968.864 1.094v-2.402a9.736 9.736 0 01-1.354-.452 2.215 2.215 0 01-.887-.73c-.25-.335-.374-.791-.374-1.37 0-.729.241-1.324.724-1.785.49-.46 1.12-.725 1.89-.792V9h.748v1.018c.747.067 1.342.31 1.786.73.451.418.704.997.759 1.734h-1.763a1.165 1.165 0 00-.245-.628 1.052 1.052 0 00-.537-.39v2.376c.583.16 1.043.314 1.377.465.343.143.638.381.887.717.25.327.374.78.374 1.357zm-4.296-3.873c0 .277.078.503.234.68.155.167.381.305.677.414v-2.175c-.28.042-.502.155-.666.34-.163.184-.245.431-.245.741zm1.658 5.067c.296-.059.525-.189.689-.39.17-.201.256-.444.256-.73 0-.276-.081-.498-.245-.665-.163-.168-.397-.306-.7-.415v2.2z"
      ></path>
      <defs id="defs11">
        <clipPath id="clip0_1071_25635">
          <path id="path8" fill="#fff" d="M0 0h24v24H0z"></path>
        </clipPath>
      </defs>
    </svg>